<?xml version="1.0" standalone="no"?>
<!DOCTYPE svg PUBLIC "-//W3C//DTD SVG 20010904//EN"
 "http://www.w3.org/TR/2001/REC-SVG-20010904/DTD/svg10.dtd">
<svg version="1.0" xmlns="http://www.w3.org/2000/svg"
 width="790.000000pt" height="790.000000pt" viewBox="0 0 790.000000 790.000000"
 preserveAspectRatio="xMidYMid meet">
<metadata>
Created by potrace 1.11, written by Peter Selinger 2001-2013
</metadata>
<g transform="translate(0.000000,790.000000) scale(0.100000,-0.100000)"
fill="#000000" stroke="none">
<path d="M4950 7397 c-26 -20 -65 -78 -109 -161 -51 -96 -133 -220 -203 -307
-29 -37 -71 -92 -93 -122 -52 -73 -119 -102 -285 -123 -13 -1 -46 -6 -74 -10
-86 -11 -155 -15 -363 -20 l-202 -4 -100 80 c-128 101 -134 107 -189 155 -54
48 -168 163 -237 238 -75 81 -135 106 -167 70 -25 -29 -32 -71 -43 -263 -5
-87 -11 -146 -20 -190 -3 -14 -8 -45 -11 -70 -8 -68 -24 -165 -39 -250 -2 -14
-7 -45 -10 -70 -10 -78 -16 -124 -20 -150 -4 -25 -10 -75 -21 -180 -3 -30 -7
-122 -9 -205 -1 -82 -7 -164 -13 -181 -36 -113 -105 -189 -198 -220 -59 -19
-113 -21 -458 -15 -38 1 -77 -1 -86 -4 -27 -9 -32 -35 -14 -63 26 -40 179
-188 279 -272 50 -41 92 -77 95 -80 3 -3 32 -25 65 -50 33 -24 69 -52 79 -62
11 -10 25 -18 32 -18 7 0 14 -4 16 -8 3 -7 91 -69 139 -97 108 -63 231 -113
323 -131 12 -2 30 -6 41 -9 11 -2 54 -12 95 -20 41 -9 98 -25 126 -35 69 -25
171 -52 214 -56 19 -1 46 -5 60 -8 27 -6 156 -24 230 -32 105 -11 258 -34 290
-44 19 -6 44 -18 56 -28 20 -17 46 -81 58 -147 4 -16 9 -41 11 -55 3 -14 7
-45 10 -70 3 -25 8 -61 11 -80 17 -107 25 -447 12 -540 -9 -67 -74 -236 -121
-317 -18 -30 -45 -60 -64 -70 -32 -17 -34 -17 -66 0 -18 10 -39 27 -46 38 -7
12 -30 90 -52 174 -57 224 -118 389 -187 508 -40 69 -114 148 -159 171 -40 20
-131 21 -159 1 -12 -8 -24 -12 -26 -9 -10 9 -76 -82 -109 -151 -19 -38 -34
-72 -35 -75 0 -3 -12 -43 -26 -90 -23 -74 -37 -128 -39 -145 0 -2 -5 -19 -10
-37 -5 -18 -12 -46 -14 -63 -3 -16 -10 -54 -16 -84 -6 -30 -12 -64 -14 -75 -1
-12 -5 -41 -9 -66 -13 -89 -21 -149 -31 -240 -3 -30 -8 -71 -10 -90 -3 -19 -7
-74 -10 -121 -3 -47 -8 -96 -10 -110 -4 -20 -15 -390 -15 -521 l0 -36 -42 4
c-24 3 -63 6 -88 8 -145 13 -224 50 -334 161 -101 101 -118 123 -160 210 -47
97 -67 174 -82 305 -12 110 -4 506 11 530 3 4 7 32 10 61 3 29 12 78 20 109 8
31 17 67 19 81 2 13 5 24 6 24 1 0 3 11 5 25 2 14 10 54 19 90 15 68 28 154
31 205 0 17 4 35 6 40 3 6 6 130 7 276 1 268 -8 364 -40 421 -7 13 -13 25 -13
28 -3 21 -88 133 -125 164 -111 93 -215 121 -375 102 -122 -14 -314 -99 -470
-205 -44 -30 -131 -97 -145 -111 -3 -3 -27 -22 -53 -44 -87 -70 -306 -298
-407 -423 -8 -10 -35 -43 -60 -73 -144 -173 -359 -483 -468 -674 -61 -107
-192 -366 -196 -389 -1 -7 -10 -29 -19 -50 -40 -91 -68 -218 -49 -217 4 1 33
33 65 73 31 40 71 88 88 107 48 56 78 91 133 155 59 68 54 63 205 224 210 224
440 447 675 656 13 11 38 34 57 50 34 31 117 99 198 165 52 42 179 130 187
130 3 0 18 9 34 20 45 32 172 79 221 81 72 4 116 -33 135 -111 5 -22 6 -151 1
-175 -3 -11 -8 -40 -12 -65 -11 -66 -14 -80 -20 -100 -3 -10 -8 -29 -11 -42
-7 -29 -7 -31 -28 -99 -9 -31 -18 -65 -20 -75 -6 -31 -27 -108 -33 -124 -3 -8
-7 -19 -9 -25 -1 -5 -21 -68 -44 -140 -72 -225 -116 -374 -126 -425 -3 -14 -7
-32 -10 -41 -2 -9 -7 -32 -9 -50 -3 -19 -9 -61 -14 -94 -5 -33 -8 -121 -6
-195 3 -157 25 -265 82 -399 108 -253 257 -427 608 -711 44 -35 82 -67 85 -70
3 -3 23 -19 45 -35 22 -17 42 -33 45 -37 3 -3 23 -21 45 -38 107 -85 250 -218
242 -226 -8 -8 -42 -11 -197 -19 -130 -6 -183 -9 -335 -20 -234 -17 -229 -16
-490 -61 -135 -23 -348 -80 -410 -110 -43 -20 -55 -32 -75 -73 -48 -104 -20
-241 58 -274 57 -24 91 -32 182 -41 19 -2 55 -6 80 -10 210 -29 1156 -43 1540
-23 148 8 2176 21 2615 17 805 -8 1380 1 1640 25 28 2 79 7 115 9 73 5 148 14
170 21 8 2 35 7 60 10 25 4 49 7 55 8 25 5 70 35 70 48 0 26 -156 82 -295 105
-21 3 -95 16 -215 38 -16 2 -50 8 -75 12 -25 4 -193 8 -375 10 -315 2 -373 5
-475 21 -25 3 -57 7 -71 8 -14 1 -37 5 -51 8 -14 4 -43 9 -64 12 -21 4 -53 10
-70 16 -17 5 -41 12 -53 14 -51 10 -246 80 -267 96 -6 5 -37 23 -70 40 -32 18
-70 41 -83 53 -65 56 -160 152 -165 166 -5 14 -28 54 -51 90 -5 8 -10 17 -11
20 0 3 -6 19 -13 35 -27 63 -48 197 -45 294 3 105 33 274 65 361 18 48 62 212
75 280 3 14 7 32 9 40 2 8 7 31 10 50 3 19 10 58 15 85 5 28 12 68 15 90 3 22
7 47 10 55 2 8 6 35 9 60 3 25 8 57 11 71 2 14 7 45 9 70 3 24 5 44 6 44 1 0
3 11 5 25 9 63 17 128 20 160 1 19 6 60 10 90 28 209 36 452 21 599 -4 41 -9
78 -11 81 -2 4 -7 21 -10 38 -10 58 -55 142 -101 188 -25 25 -48 43 -51 41 -2
-3 -20 1 -39 9 -68 28 -114 -2 -173 -116 -19 -36 -38 -72 -42 -80 -5 -8 -33
-67 -63 -131 -84 -179 -139 -251 -218 -288 -66 -31 -104 -35 -154 -16 -188 72
-387 636 -329 932 9 49 14 56 65 90 46 31 383 211 430 229 47 19 368 179 382
191 9 8 22 15 30 17 19 3 199 109 291 172 43 30 81 54 84 54 2 0 10 6 17 13 7
6 28 23 46 37 114 85 255 251 310 365 8 17 21 38 29 48 8 9 11 17 6 17 -4 0
-2 6 4 14 16 19 -13 28 -65 21 -75 -12 -97 -16 -104 -20 -3 -2 -20 -7 -36 -10
-46 -10 -48 -10 -59 -17 -5 -3 -32 -9 -59 -12 -27 -4 -52 -9 -56 -11 -17 -10
-110 47 -150 92 -67 75 -132 223 -156 353 -11 59 -24 141 -29 175 -2 22 -9 56
-13 75 -5 19 -9 38 -10 43 -1 4 -2 8 -3 10 0 1 -2 10 -5 20 -2 9 -6 23 -7 30
-2 6 -7 26 -12 42 -24 91 -155 375 -201 435 -24 30 -114 209 -169 335 -80 182
-111 218 -155 182z m-12 -1332 c173 -22 390 -137 451 -240 17 -29 17 -34 2
-73 -15 -37 -67 -110 -96 -134 -5 -5 -21 -17 -35 -29 -53 -43 -171 -100 -240
-114 -8 -2 -40 -9 -70 -17 -122 -31 -334 -3 -438 58 -114 67 -191 198 -159
272 20 47 70 109 107 133 19 13 37 27 40 30 8 10 74 43 83 41 4 -1 7 2 7 7 0
5 10 13 23 16 12 4 40 15 62 25 78 35 108 34 72 -2 -8 -7 -25 -43 -39 -78 -21
-54 -26 -82 -26 -165 -1 -181 48 -292 147 -328 3 -1 8 9 12 23 49 165 52 179
53 280 1 106 -1 114 -45 190 -8 14 -16 27 -20 30 -3 3 -17 21 -33 42 -24 33
-25 37 -9 40 22 5 80 2 151 -7z m-1241 -51 c160 -12 248 -46 358 -139 125
-105 143 -135 127 -211 -14 -68 -53 -123 -112 -160 -25 -15 -47 -31 -50 -34
-7 -7 -88 -47 -125 -61 -16 -6 -66 -13 -110 -16 -44 -2 -84 -5 -90 -5 -9 -1
-64 10 -165 33 -62 15 -143 47 -219 87 -104 55 -124 69 -192 134 -58 56 -62
84 -23 144 42 65 200 168 289 189 11 2 38 9 60 15 22 6 69 13 105 17 36 3 67
10 68 14 2 5 8 7 13 3 5 -3 35 -7 66 -10z"/>
<path d="M3611 5983 c-53 -141 -57 -159 -56 -244 1 -47 8 -103 15 -125 14 -44
60 -134 69 -134 3 0 24 -16 46 -35 44 -39 48 -40 62 -22 28 36 41 101 42 209
3 182 -29 277 -117 347 -22 17 -42 31 -45 31 -3 0 -10 -12 -16 -27z"/>
</g>
</svg>
